<?xml version="1.0" encoding="UTF-8" standalone="no"?>
<svg
   xmlns:dc="http://purl.org/dc/elements/1.1/"
   xmlns:cc="http://creativecommons.org/ns#"
   xmlns:rdf="http://www.w3.org/1999/02/22-rdf-syntax-ns#"
   xmlns:svg="http://www.w3.org/2000/svg"
   xmlns="http://www.w3.org/2000/svg"
   xmlns:sodipodi="http://sodipodi.sourceforge.net/DTD/sodipodi-0.dtd"
   xmlns:inkscape="http://www.inkscape.org/namespaces/inkscape"
   width="196pt"
   height="196pt"
   viewBox="0 0 196 196"
   version="1.1"
   id="svg2"
   inkscape:version="0.91 r13725"
   sodipodi:docname="budgie2.svg"
   inkscape:export-filename="/home/yurihenriq/Documentos/budgie2.svg.png"
   inkscape:export-xdpi="751.22449"
   inkscape:export-ydpi="751.22449">
  <metadata
     id="metadata26">
    <rdf:RDF>
      <cc:Work
         rdf:about="">
        <dc:format>image/svg+xml</dc:format>
        <dc:type
           rdf:resource="http://purl.org/dc/dcmitype/StillImage" />
      </cc:Work>
    </rdf:RDF>
  </metadata>
  <defs
     id="defs24" />
  <sodipodi:namedview
     pagecolor="#ffffff"
     bordercolor="#666666"
     borderopacity="1"
     objecttolerance="10"
     gridtolerance="10"
     guidetolerance="10"
     inkscape:pageopacity="0"
     inkscape:pageshadow="2"
     inkscape:window-width="1600"
     inkscape:window-height="835"
     id="namedview22"
     showgrid="false"
     inkscape:zoom="1.3622629"
     inkscape:cx="90.893754"
     inkscape:cy="140.30716"
     inkscape:window-x="0"
     inkscape:window-y="37"
     inkscape:window-maximized="1"
     inkscape:current-layer="svg2" />
  <path
     fill="#ffffff"
     d=" M 0.00 0.00 L 93.92 0.00 C 71.53 1.01 49.52 9.77 32.84 24.79 C 13.17 42.06 1.21 67.54 0.00 93.65 L 0.00 0.00 Z"
     id="path4" />
  <path
     fill="#404552"
     d=" M 93.92 0.00 L 103.14 0.00 C 124.94 1.34 146.33 9.80 162.68 24.36 C 182.72 41.73 194.93 67.58 196.00 94.05 L 196.00 103.14 C 194.66 124.90 186.23 146.25 171.71 162.59 C 154.49 182.53 128.90 194.68 102.63 196.00 L 93.66 196.00 C 71.36 194.91 49.46 186.18 32.84 171.22 C 13.22 153.99 1.28 128.60 0.00 102.56 L 0.00 93.65 C 1.21 67.54 13.17 42.06 32.84 24.79 C 49.52 9.77 71.53 1.01 93.92 0.00 Z"
     id="path6" />
  <path
     fill="#ffffff"
     d=" M 103.14 0.00 L 196.00 0.00 L 196.00 94.05 C 194.93 67.58 182.72 41.73 162.68 24.36 C 146.33 9.80 124.94 1.34 103.14 0.00 Z"
     id="path8" />
  <path
     fill="#ffffff"
     d=" M 96.40 58.37 C 104.89 52.23 115.96 51.16 126.11 52.11 C 136.89 53.32 147.84 57.49 155.12 65.82 C 160.06 71.24 162.61 78.37 163.61 85.54 C 163.97 88.24 164.32 90.95 164.49 93.67 C 165.37 107.98 160.11 122.19 151.41 133.42 C 141.96 143.46 129.39 150.39 116.06 153.74 C 96.57 158.60 75.07 155.62 57.98 144.93 C 47.19 138.21 38.35 128.22 33.51 116.42 C 29.25 104.87 29.30 92.21 31.56 80.24 C 33.45 87.49 39.01 93.70 46.21 95.93 C 52.83 98.01 61.05 97.27 65.97 91.94 C 77.13 81.67 83.84 67.19 96.40 58.37 Z"
     id="path10" />
  <path
     fill="#404552"
     d=" M 129.68 76.50 C 131.52 72.66 136.60 72.51 139.66 74.96 C 139.03 75.15 137.77 75.54 137.14 75.74 C 137.19 76.49 137.27 78.00 137.32 78.75 C 138.68 78.89 140.02 78.61 141.32 78.21 C 141.04 81.03 139.98 84.27 136.86 85.00 C 131.98 86.89 127.12 81.01 129.68 76.50 Z"
     id="path12" />
  <path
     fill="#5294e2"
     d=" M 163.61 85.54 C 166.74 86.62 169.89 87.64 173.03 88.67 C 170.16 90.30 167.30 91.94 164.49 93.67 C 164.32 90.95 163.97 88.24 163.61 85.54 Z"
     id="path14" />
  <path
     fill="#5294e2"
     d=" M 76.69 100.62 C 78.77 96.92 82.69 94.65 86.83 94.07 C 94.47 93.23 101.94 100.28 100.91 108.02 C 99.57 112.91 96.46 117.96 91.27 119.33 C 78.03 122.36 64.92 117.52 52.28 114.06 C 61.59 112.75 71.64 109.10 76.69 100.62 Z"
     id="path16" />
  <path
     fill="#ffffff"
     d=" M 0.00 102.56 C 1.28 128.60 13.22 153.99 32.84 171.22 C 49.46 186.18 71.36 194.91 93.66 196.00 L 0.00 196.00 L 0.00 102.56 Z"
     id="path18" />
  <path
     fill="#ffffff"
     d=" M 171.71 162.59 C 186.23 146.25 194.66 124.90 196.00 103.14 L 196.00 196.00 L 102.63 196.00 C 128.90 194.68 154.49 182.53 171.71 162.59 Z"
     id="path20" />
  <circle
     style="fill:#404552;fill-opacity:1;stroke:#404552;stroke-width:0.80000001;stroke-opacity:1"
     id="path3362"
     cx="135.23454"
     cy="79.337494"
     r="5.8909335" />
  <ellipse
     style="fill:#ffffff;fill-opacity:1;stroke:#ffffff;stroke-width:0.80000001;stroke-opacity:1"
     id="path3370"
     cx="138.44611"
     cy="76.566368"
     rx="1.725071"
     ry="1.6883672" />
</svg>
